<svg width="18" height="18" viewBox="0 0 18 18" fill="none" xmlns="http://www.w3.org/2000/svg">
<path d="M5.525 11.866H12.455C12.7637 11.866 12.9983 11.7303 13.159 11.459C13.3197 11.1877 13.3187 10.916 13.156 10.644L9.696 4.887C9.532 4.63033 9.29933 4.502 8.998 4.502C8.69667 4.502 8.46533 4.63033 8.304 4.887L4.826 10.626C4.66267 10.8973 4.66133 11.1717 4.822 11.449C4.98267 11.727 5.217 11.866 5.525 11.866ZM5.871 10.866L9 5.689L12.104 10.866H5.871ZM9.001 18C7.75833 18 6.58934 17.7663 5.494 17.299C4.39867 16.8317 3.443 16.1897 2.627 15.373C1.811 14.5563 1.169 13.601 0.701001 12.507C0.233001 11.413 -0.000665244 10.2447 1.42248e-06 9.002C0.000668089 7.75933 0.234335 6.59 0.701001 5.494C1.16767 4.398 1.80967 3.44567 2.627 2.637C3.44367 1.82567 4.399 1.18333 5.493 0.71C6.58633 0.236667 7.75467 0 8.998 0C10.2413 0 11.411 0.236333 12.507 0.709C13.603 1.18167 14.556 1.82233 15.366 2.631C16.176 3.43967 16.8177 4.392 17.291 5.488C17.7643 6.584 18.0007 7.75367 18 8.997C17.9993 10.2403 17.7627 11.41 17.29 12.506C16.8173 13.602 16.1753 14.5577 15.364 15.373C14.5527 16.1883 13.6007 16.8303 12.508 17.299C11.4153 17.7677 10.2457 18.0013 9.001 18ZM8.991 17C11.2137 17 13.1043 16.224 14.663 14.672C16.2217 13.12 17.0007 11.2323 17 9.009C16.9993 6.78567 16.2203 4.89533 14.663 3.338C13.1057 1.78067 11.218 1.00133 9 1C6.77067 1 4.88 1.77933 3.328 3.338C1.776 4.89667 1 6.784 1 9C1 11.2293 1.776 13.12 3.328 14.672C4.88 16.224 6.76767 17 8.991 17Z" fill="white"/>
</svg>
